<svg xmlns="http://www.w3.org/2000/svg" viewBox="0 0 24 24" width="128" height="128">
  <path d="M22.849 7.698l-9.588-6.56a2.098 2.098 0 0 0-2.522 0L1.151 7.698A2.074 2.074 0 0 0 .25 9.463V20a3.754 3.754 0 0 0 3.75 3.75h4.25a1.25 1.25 0 0 0 1.25-1.25v-5a1.5 1.5 0 0 1 1.5-1.5h2a1.5 1.5 0 0 1 1.5 1.5v5a1.25 1.25 0 0 0 1.25 1.25H20a3.754 3.754 0 0 0 3.75-3.75V9.463a2.074 2.074 0 0 0-.901-1.765zM22.25 20A2.252 2.252 0 0 1 20 22.25h-3.25v-4.75a3 3 0 0 0-3-3h-2a3 3 0 0 0-3 3v4.75H4a2.252 2.252 0 0 1-2.25-2.25V9.463a.59.59 0 0 1 .24-.475l9.588-6.56a.6.6 0 0 1 .844 0l9.588 6.56a.59.59 0 0 1 .24.475z" fill="#5b8ff9"/>
</svg>
